<svg xmlns="http://www.w3.org/2000/svg" viewBox="0.0 0.0 1169.63 559.61" width="457.14285714285717" height="218.75">
  <defs>
    <style>
      .cls-1 {
        fill: #fff;
      }

      .cls-2 {
        fill: #e4002b;
      }

      .cls-3 {
        fill: #f6be00;
      }
    </style>
  </defs>
  <g>
    <g>
      <path d="M1062.83,200.15V41.25l-111.07-.08-284.43,19.89-5.46-19.84h-158.13l-11.73,42.7c-3.03-4.39-28.12-42.7-85.72-42.7h-119.02l-7.99,29.24c-3.23-4-23.73-29.24-65.58-29.24l-89.63.12L76.75,0,23.61,53.14l5.27,6.46L0,121.54l29.91,31.78,44.47,4.96v155.62l26.17,22.09h94.62c-5.29,9.62-7.62,19.93-7.62,29,0,15.19,4.91,26.94,12.12,36.07l-18.26,64.17,24.57,20.21s34.75,20.18,71.5,19.83c35.59-.34,51.79-15.13,56.38-20.15l11.53,18.66h139.96l5.32-23.05h7.59l5.32,23.05h207.84s39.23,9.2,70.68-14.04c5.56-4.11,10.47-10.03,14.6-15.85,1.36-1.92,4.66-6.64,7.66-10.94,16.25,42.59,51.64,77.28,98.84,90.81,79.63,22.83,162.68-23.21,185.52-102.83,11.52-40.17,5.5-81.21-13.51-114.95h36.18l27.44-22.09,30.78-113.74h-106.81Z"/>
      <path class="cls-3" d="M975.22,302.65c-54.2-15.54-108,17.8-121.21,63.86-8.81,30.73,2.81,60.02,26.7,80.78l-3.09,10.79c-1.66,5.8,1.7,11.85,7.51,13.52l38.48,11.03,38.48,11.03c5.81,1.67,11.87-1.69,13.53-7.48l3.1-10.79c31.26-4.95,56.64-23.62,65.45-54.35,13.21-46.06-14.75-102.84-68.95-118.39ZM927.6,363.6c3.31-1.83,7.48-.64,9.31,2.67l8.69,15.68c1.83,3.31.64,7.47-2.67,9.31-3.31,1.83-7.48.64-9.31-2.67l-8.69-15.68c-1.83-3.31-.64-7.47,2.67-9.31ZM892.74,429.87c-15.9-4.56-25.09-21.14-20.53-37.03,4.56-15.9,21.14-25.09,37.04-20.53,15.9,4.56,25.09,21.14,20.53,37.04-4.56,15.9-21.14,25.09-37.04,20.53ZM933.89,446.8h0l-13.72-3.94,20.54-19.83,6.91,27.7-13.72-3.94ZM958.33,385.6l15.68-8.69c3.31-1.83,7.48-.64,9.31,2.67,1.83,3.31.64,7.47-2.67,9.31l-15.68,8.69c-3.31,1.83-7.47.64-9.31-2.67-1.83-3.31-.64-7.48,2.67-9.31ZM1014.79,433.72c-4.56,15.89-21.14,25.09-37.04,20.53-15.9-4.56-25.09-21.14-20.53-37.04,4.56-15.9,21.14-25.09,37.04-20.53,15.9,4.56,25.09,21.14,20.53,37.04ZM982.35,277.79c-68.56-19.66-140.08,19.98-159.74,88.54-19.66,68.56,19.98,140.08,88.54,159.74,68.56,19.66,140.08-19.98,159.74-88.54,19.66-68.56-19.98-140.08-88.54-159.74ZM1058.46,433.96c-17.69,61.69-82.05,97.37-143.74,79.68-61.69-17.69-97.37-82.04-79.68-143.74,17.69-61.69,82.05-97.37,143.74-79.68,61.7,17.69,97.37,82.04,79.68,143.74Z"/>
      <path class="cls-1" d="M442.53,320.93l-113.95.04-12.37,45.01h37.03v100.68h47.69v-100.68h29.22l12.38-45.05ZM271.98,374.2c-10.92-3.52-17.11-4.18-15.86-9.34.78-3.2,4.82-4.4,12.29-3.73,18.27,1.65,40.72,12.31,40.72,12.31l12.87-46.73-44.74-10.77-1.45,5.28s-.03,0-.05.01c-8.53-1.02-17.46-1.17-26.02.3-32.66,5.6-41.26,29.45-41.26,43.45,0,29.04,25.58,40.54,48.73,48.51,7.48,2.58,15.66,4.8,13.43,10.07-2.41,5.7-14.11,3.47-28.45-.34-8.84-2.35-24.32-10.02-24.32-10.02l-11.98,42.12s27.32,13.15,56.25,12.94c21.18-.16,58.56-7.01,58.56-47.02,0-27.8-26.66-39.92-48.74-47.05ZM683.6,373.98c0-30.01-20.73-53.05-52.94-53.05h-64.86l-12.28,44.98h11.98v91.96l-37.66-136.9h-80.33l-12.37,45h11.58l-27.67,100.68h49.85l5.77-25h37.61l5.77,25h47.43s47.42,0,47.42,0v-42.25l17.9,42.25h52.43l-21.59-47.67c14.57-10.13,21.95-25.26,21.95-45.01ZM482.82,406.11l10.66-46.31,10.66,46.31h-21.33ZM626.18,387.55h-13.26v-23.59h13.26c6.67,0,11.72,5.48,11.72,11.8s-4.79,11.8-11.72,11.8ZM750.78,374.2c-10.92-3.52-17.11-4.18-15.86-9.34.78-3.2,4.82-4.4,12.29-3.73,18.27,1.65,40.72,12.31,40.72,12.31l12.87-46.73-44.74-10.77-1.45,5.28s-.03,0-.05.01c-8.53-1.02-17.46-1.17-26.02.3-32.66,5.6-41.26,29.45-41.26,43.45,0,29.04,25.58,40.54,48.73,48.51,7.48,2.58,15.66,4.8,13.43,10.07-2.41,5.7-14.11,3.47-28.45-.34-8.84-2.35-24.32-10.02-24.32-10.02l-11.98,42.12s27.32,13.15,56.25,12.94c21.18-.16,58.56-7.01,58.56-47.02,0-27.8-26.66-39.92-48.74-47.05Z"/>
      <path class="cls-2" d="M27.6,106.04l46.55,5.19,7.14-19.6-41.24-12.27-12.44,26.69ZM1044.36,218.62V59.72h-75.93l-19.93,72.77h19.16v128.91c6.08.96,12.17,2.29,18.24,4.03,21.28,6.1,40.17,16.51,55.98,30.01h82.84l20.79-76.81h-101.14ZM870.49,65.37l-10.82,83.2-22.29-80.89-55.42,3.88-10.82,83.2-22.29-80.89-81.28,5.68,63.9,231.84,76.63-5.36,11.77-90.51,23.07,83.73c22.78-20.94,51.7-34.51,82.67-38.47l26.15-201.1-81.28,5.68ZM252.42,170.82c16.06-10.09,25.16-27.82,25.16-49.43,0-42.63-32.08-61.71-63.88-61.71l-96.55.13-39.55-34.56-23.56,23.56,70.04,38.6-4.28,15.66-26.95-8.02v200.37h123.67c32.99,0,67.41-21.32,67.41-67.54,0-26.88-11.41-47.38-31.51-57.07ZM167.09,124.25h23.81c7.63,0,13.41,6.27,13.42,13.5,0,6.94-5.49,13.5-13.41,13.5h-23.81v-26.99ZM194.46,228.5h-27.37v-31.03h27.37c8.77,0,15.42,7.21,15.42,15.51s-6.3,15.51-15.42,15.51ZM517.82,59.69l-20.01,72.83h18.74l-37.38,136.03-22.75-50.23c23.57-16.39,35.51-40.87,35.51-72.81,0-48.55-33.53-85.82-85.64-85.82h-104.92l-19.87,72.77h19.37v162.97h76.71v-68.35l28.96,68.35h65.25,0s80.67,0,80.67,0l9.34-40.46h60.87l9.34,40.46h80.67l-64.85-235.74h-129.98ZM399.03,167.46h-21.46v-38.17h21.46c10.79,0,18.97,8.87,18.97,19.08s-7.76,19.09-18.97,19.09ZM574.96,197.46l17.26-74.93,17.26,74.93h-34.51Z"/>
    </g>
  </g>
</svg>